<?xml version="1.0" encoding="UTF-8"?>
<svg version="1.1" viewBox="0 0 2048 2048" width="1280" height="1280" xmlns="http://www.w3.org/2000/svg">
<path transform="translate(0)" d="m0 0h2048v2048h-2048z" fill="#FDFDFD"/>
<path transform="translate(338,1088)" d="m0 0h3l7 8 10 9 18 12 15 8 19 8 25 9 35 10 53 12 75 16 42 10 47 13 41 14 31 13 21 10 23 13 19 12 19 14 14 12 7 7 8 7 13 14 11 14 12 17 9 15 12 23 10 23 10 30 7 29 3 14v6l-10 3-14 3-33 3h-29l-41-3-32-4-39-7-33-8-31-9-35-12-23-10-13-7-7-4 2 4 7 8 15 15 17 13 17 11 20 11 27 12 35 12 26 7 28 6 33 5 34 3h56l22-2 38-6 36-8 29-9 20-7 25-10 35-17 18-10 23-14 16-11 22-16 4 4 6 12 4 12 1 6v14l-3 14-5 12-10 14-9 8-20 12-24 13-21 10-31 13-27 10-37 11-34 8-36 6-25 3-21 2-5 3-7 8-15 15-14 11-13 9-16 9-16 8-21 8-22 6-25 4-15 1h-25l-25-2-27-5-24-6-30-10-27-12-20-10-22-13-17-11-14-10-14-11-11-9-14-12-15-14-9-9-7-8-7-7-9-11-12-14-13-18-18-27-13-22-12-23-11-23-10-25-11-33-8-31-7-38-4-36-1-22v-27l1-26 4-37 7-38z" fill="#00A254"/>
<path transform="translate(1033,347)" d="m0 0h33l30 2 31 4 28 5 36 9 36 12 25 10 29 14 24 13 13 8 21 14 14 10 13 10 11 9 14 12 10 9-1 3-15 4-19 8-18 10-17 12-11 9-15 13-16 15-12 12-7 8-11 11-7 8-12 13-9 10-12 14-7 7-7 8-12 13-9 10-14 15-44 44-8 7-14 12-13 11-17 13-18 13-18 11-18 10-22 11-20 8-27 9-34 7-30 3h-30l-33-4-25-5-20-5-16-5-17-6-1-1 1-8 5-15 9-20 10-20 14-23 11-16 12-17 12-16 11-13 9-11 11-12 7-8 10-10 7-8 11-11 8-7 13-12 11-9 14-11 17-12 14-8v-1l-9 1-21 6-19 7-25 12-21 13-14 10-13 10-14 12-12 11-10 9-7 8-10 10-9 11-12 14-14 19-14 20-12 20-10 18-8 15-11 25-11 30-9 31-6 24-5 26-4 31-2 23-1 19v22l2 33 2 20v13l-1 1h-15l-14-3-16-8-9-7-7-7-8-13-5-15-1-7v-38l3-45 6-41 8-36 9-33 11-32 10-25 12-27 2-3v-8l-6-22-4-21-2-18v-31l4-28 7-26 8-21 8-17 13-22 14-19 13-16 14-15 11-11 8-7 13-11 16-12 21-14 17-10 14-8 22-11 29-12 36-12 30-8 30-6 29-4 21-2z" fill="#00A254"/>
<path transform="translate(1271,723)" d="m0 0h14l12 3 23 11 24 15 18 12 18 13 16 13 10 8 13 11 16 15 25 25 7 8 11 13 9 11 10 13 13 18 9 12 28 8 20 7 15 7 14 7 18 12 16 13 13 12 12 13 12 16 10 15 13 24 9 20 9 26 6 21 5 28 4 32 1 13v40l-3 32-5 34-6 28-7 26-11 32-12 29-12 25-12 22-12 20-15 22-16 21-11 13-12 14-34 34-11 9-14 12-19 14-22 15-22 13-27 14-25 12-28 11-26 9h-5l1-7 4-18 1-9v-26l-3-26-6-31-9-34-14-45-22-68-14-47-10-38-9-42-4-25-3-29-1-20v-29l2-24 5-32 7-26 7-20 8-18 8-16 11-19 11-16 11-14 11-13 16-17 16-15 13-11 5 1 12 14 13 17 17 28 10 18 11 23 12 28 10 26 11 33 9 32 7 32 5 32 2 20 1 17 2-2 7-26 4-26 1-13v-28l-3-31-5-30-7-28-12-38-13-32-14-29-11-21-15-24-12-17-10-13-11-13-7-8-11-12-9-10-9-9-8-7-12-11-11-9-16-13-19-13-10-7-19-12-22-12-19-10-29-13-4-2 1-4 7-11 9-10 10-8 15-7z" fill="#00A254"/>
</svg>
